{
  "accessors": [
    {
      "bufferView": 2,
      "componentType": 5126,
      "count": 1094,
      "max": [
        1.0,
        3.8726584911346436,
        1.0
      ],
      "min": [
        -1.0,
        -1.030810832977295,
        -1.0
      ],
      "type": "VEC3"
    },
    {
      "bufferView": 2,
      "byteOffset": 13128,
      "componentType": 5126,
      "count": 1094,
      "max": [
        1.0,
        1.0,
        1.0
      ],
      "min": [
        -1.0,
        -1.0,
        -1.0
      ],
      "type": "VEC3"
    },
    {
      "bufferView": 1,
      "componentType": 5126,
      "count": 1094,
      "max": [
        0.625,
        1.0
      ],
      "min": [
        0.125,
        0.0
      ],
      "type": "VEC2"
    },
    {
      "bufferView": 0,
      "componentType": 5125,
      "count": 2124,
      "type": "SCALAR"
    },
    {
      "bufferView": 2,
      "byteOffset": 26256,
      "componentType": 5126,
      "count": 344,
      "max": [
        0.3688586354255676,
        4.2003889083862305,
        0.6678435206413269
      ],
      "min": [
        -1.0239498615264893,
        -0.5576738715171814,
        -0.921220064163208
      ],
      "type": "VEC3"
    },
    {
      "bufferView": 2,
      "byteOffset": 30384,
      "componentType": 5126,
      "count": 344,
      "max": [
        0.9999960064888,
        1.0,
        1.0
      ],
      "min": [
        -1.0,
        -1.0,
        -1.0
      ],
      "type": "VEC3"
    },
    {
      "bufferView": 1,
      "byteOffset": 8752,
      "componentType": 5126,
      "count": 344,
      "max": [
        1.0,
        1.0
      ],
      "min": [
        7.450580596923828e-08,
        0.01000000536441803
      ],
      "type": "VEC2"
    },
    {
      "bufferView": 0,
      "byteOffset": 8496,
      "componentType": 5125,
      "count": 552,
      "type": "SCALAR"
    },
    {
      "bufferView": 2,
      "byteOffset": 34512,
      "componentType": 5126,
      "count": 3770,
      "max": [
        1.0703858137130737,
        3.764552354812622,
        1.073349118232727
      ],
      "min": [
        -1.0841158628463745,
        -0.55739825963974,
        -1.0654165744781494
      ],
      "type": "VEC3"
    },
    {
      "bufferView": 2,
      "byteOffset": 79752,
      "componentType": 5126,
      "count": 3770,
      "max": [
        1.0,
        1.0,
        1.0
      ],
      "min": [
        -1.0,
        -1.0,
        -1.0
      ],
      "type": "VEC3"
    },
    {
      "bufferView": 1,
      "byteOffset": 11504,
      "componentType": 5126,
      "count": 3770,
      "max": [
        1.0,
        0.8333333134651184
      ],
      "min": [
        0.0,
        0.0
      ],
      "type": "VEC2"
    },
    {
      "bufferView": 0,
      "byteOffset": 10704,
      "componentType": 5125,
      "count": 6060,
      "type": "SCALAR"
    },
    {
      "bufferView": 2,
      "byteOffset": 124992,
      "componentType": 5126,
      "count": 280,
      "max": [
        0.976300060749054,
        2.779247522354126,
        0.979263424873352
      ],
      "min": [
        -0.9900301694869995,
        -0.35457831621170044,
        -0.9713308811187744
      ],
      "type": "VEC3"
    },
    {
      "bufferView": 2,
      "byteOffset": 128352,
      "componentType": 5126,
      "count": 280,
      "max": [
        1.0,
        0.0,
        1.0
      ],
      "min": [
        -1.0,
        0.0,
        -1.0
      ],
      "type": "VEC3"
    },
    {
      "bufferView": 1,
      "byteOffset": 41664,
      "componentType": 5126,
      "count": 280,
      "max": [
        0.6184486150741577,
        0.1666666716337204
      ],
      "min": [
        0.48731881380081177,
        0.0833333283662796
      ],
      "type": "VEC2"
    },
    {
      "bufferView": 0,
      "byteOffset": 34944,
      "componentType": 5125,
      "count": 420,
      "type": "SCALAR"
    },
    {
      "bufferView": 2,
      "byteOffset": 131712,
      "componentType": 5126,
      "count": 400,
      "max": [
        0.2625231146812439,
        3.494189500808716,
        -0.24874228239059448
      ],
      "min": [
        -0.267204612493515,
        3.138521194458008,
        -0.8215703964233398
      ],
      "type": "VEC3"
    },
    {
      "bufferView": 2,
      "byteOffset": 136512,
      "componentType": 5126,
      "count": 400,
      "max": [
        1.0,
        1.0,
        1.0
      ],
      "min": [
        -1.0,
        -1.0,
        -1.0
      ],
      "type": "VEC3"
    },
    {
      "bufferView": 1,
      "byteOffset": 43904,
      "componentType": 5126,
      "count": 400,
      "max": [
        0.6250000596046448,
        0.47222238779067993
      ],
      "min": [
        0.6249999403953552,
        0.27777767181396484
      ],
      "type": "VEC2"
    },
    {
      "bufferView": 0,
      "byteOffset": 36624,
      "componentType": 5125,
      "count": 648,
      "type": "SCALAR"
    },
    {
      "bufferView": 2,
      "byteOffset": 141312,
      "componentType": 5126,
      "count": 968,
      "max": [
        1.1653234958648682,
        3.907656669616699,
        1.1653234958648682
      ],
      "min": [
        -1.493662714958191,
        -1.030810832977295,
        -1.1653234958648682
      ],
      "type": "VEC3"
    },
    {
      "bufferView": 2,
      "byteOffset": 152928,
      "componentType": 5126,
      "count": 968,
      "max": [
        1.0,
        1.0,
        1.0
      ],
      "min": [
        -1.0,
        -1.0,
        -1.0
      ],
      "type": "VEC3"
    },
    {
      "bufferView": 1,
      "byteOffset": 47104,
      "componentType": 5126,
      "count": 968,
      "max": [
        0.625,
        1.0
      ],
      "min": [
        0.0,
        0.0
      ],
      "type": "VEC2"
    },
    {
      "bufferView": 0,
      "byteOffset": 39216,
      "componentType": 5125,
      "count": 1716,
      "type": "SCALAR"
    },
    {
      "bufferView": 2,
      "byteOffset": 164544,
      "componentType": 5126,
      "count": 284,
      "max": [
        1.8682421445846558,
        -0.015987824648618698,
        2.828690528869629
      ],
      "min": [
        -2.666463851928711,
        -0.10115645825862885,
        -1.5724339485168457
      ],
      "type": "VEC3"
    },
    {
      "bufferView": 2,
      "byteOffset": 167952,
      "componentType": 5126,
      "count": 284,
      "max": [
        1.0,
        1.0,
        1.0
      ],
      "min": [
        -1.0,
        -1.0,
        -1.0
      ],
      "type": "VEC3"
    },
    {
      "bufferView": 1,
      "byteOffset": 54848,
      "componentType": 5126,
      "count": 284,
      "max": [
        1.0,
        1.0
      ],
      "min": [
        0.0,
        0.0
      ],
      "type": "VEC2"
    },
    {
      "bufferView": 0,
      "byteOffset": 46080,
      "componentType": 5125,
      "count": 492,
      "type": "SCALAR"
    },
    {
      "bufferView": 2,
      "byteOffset": 171360,
      "componentType": 5126,
      "count": 30,
      "max": [
        1.8682421445846558,
        -0.09957405179738998,
        2.828690528869629
      ],
      "min": [
        -2.666463851928711,
        -0.8338109254837036,
        -1.5724339485168457
      ],
      "type": "VEC3"
    },
    {
      "bufferView": 2,
      "byteOffset": 171720,
      "componentType": 5126,
      "count": 30,
      "max": [
        1.0,
        0.0,
        1.0
      ],
      "min": [
        -1.0,
        0.0,
        -1.0
      ],
      "type": "VEC3"
    },
    {
      "bufferView": 1,
      "byteOffset": 57120,
      "componentType": 5126,
      "count": 30,
      "max": [
        1.0,
        1.0
      ],
      "min": [
        0.0,
        0.0
      ],
      "type": "VEC2"
    },
    {
      "bufferView": 0,
      "byteOffset": 48048,
      "componentType": 5125,
      "count": 48,
      "type": "SCALAR"
    },
    {
      "bufferView": 2,
      "byteOffset": 172080,
      "componentType": 5126,
      "count": 1428,
      "max": [
        -0.9791898727416992,
        2.40570068359375,
        0.9722771644592285
      ],
      "min": [
        -1.6934019327163696,
        0.6396110653877258,
        -0.29846954345703125
      ],
      "type": "VEC3"
    },
    {
      "bufferView": 2,
      "byteOffset": 189216,
      "componentType": 5126,
      "count": 1428,
      "max": [
        1.0,
        1.0,
        1.0
      ],
      "min": [
        -1.0,
        -1.0,
        -1.0
      ],
      "type": "VEC3"
    },
    {
      "bufferView": 1,
      "byteOffset": 57360,
      "componentType": 5126,
      "count": 1428,
      "max": [
        0.875,
        1.0
      ],
      "min": [
        0.0,
        0.0
      ],
      "type": "VEC2"
    },
    {
      "bufferView": 0,
      "byteOffset": 48240,
      "componentType": 5125,
      "count": 2166,
      "type": "SCALAR"
    },
    {
      "bufferView": 2,
      "byteOffset": 206352,
      "componentType": 5126,
      "count": 168,
      "max": [
        11.677645683288574,
        5.743725299835205,
        5.17637825012207
      ],
      "min": [
        3.1679718494415283,
        -0.8751195073127747,
        -3.9208366870880127
      ],
      "type": "VEC3"
    },
    {
      "bufferView": 2,
      "byteOffset": 208368,
      "componentType": 5126,
      "count": 168,
      "max": [
        1.0,
        1.0,
        1.0
      ],
      "min": [
        -1.0,
        -1.0,
        -1.0
      ],
      "type": "VEC3"
    },
    {
      "bufferView": 1,
      "byteOffset": 68784,
      "componentType": 5126,
      "count": 168,
      "max": [
        0.875,
        1.0
      ],
      "min": [
        0.125,
        0.0
      ],
      "type": "VEC2"
    },
    {
      "bufferView": 0,
      "byteOffset": 56904,
      "componentType": 5125,
      "count": 252,
      "type": "SCALAR"
    },
    {
      "bufferView": 2,
      "byteOffset": 210384,
      "componentType": 5126,
      "count": 192,
      "max": [
        11.319796562194824,
        5.642096996307373,
        5.246990203857422
      ],
      "min": [
        3.0973591804504395,
        -0.7461004853248596,
        -3.817877769470215
      ],
      "type": "VEC3"
    },
    {
      "bufferView": 2,
      "byteOffset": 212688,
      "componentType": 5126,
      "count": 192,
      "max": [
        1.0,
        1.0,
        1.0
      ],
      "min": [
        -1.0,
        -1.0,
        -1.0
      ],
      "type": "VEC3"
    },
    {
      "bufferView": 1,
      "byteOffset": 70128,
      "componentType": 5126,
      "count": 192,
      "max": [
        1.0,
        1.0
      ],
      "min": [
        0.0,
        0.01000000536441803
      ],
      "type": "VEC2"
    },
    {
      "bufferView": 0,
      "byteOffset": 57912,
      "componentType": 5125,
      "count": 324,
      "type": "SCALAR"
    },
    {
      "bufferView": 2,
      "byteOffset": 214992,
      "componentType": 5126,
      "count": 1272,
      "max": [
        -0.239396870136261,
        4.035073280334473,
        1.8245375156402588
      ],
      "min": [
        -0.9685667157173157,
        -0.03365755081176758,
        -1.245096206665039
      ],
      "type": "VEC3"
    },
    {
      "bufferView": 2,
      "byteOffset": 230256,
      "componentType": 5126,
      "count": 1272,
      "max": [
        0.9978823065757751,
        1.0,
        1.0
      ],
      "min": [
        -0.9978822469711304,
        -1.0,
        -0.9659261703491211
      ],
      "type": "VEC3"
    },
    {
      "bufferView": 1,
      "byteOffset": 71664,
      "componentType": 5126,
      "count": 1272,
      "max": [
        1.0,
        1.0
      ],
      "min": [
        7.450580596923828e-08,
        0.01000000536441803
      ],
      "type": "VEC2"
    },
    {
      "bufferView": 0,
      "byteOffset": 59208,
      "componentType": 5125,
      "count": 1944,
      "type": "SCALAR"
    },
    {
      "bufferView": 2,
      "byteOffset": 245520,
      "componentType": 5126,
      "count": 608,
      "max": [
        -0.8715933561325073,
        4.144313335418701,
        -0.7649275064468384
      ],
      "min": [
        -2.7182674407958984,
        -0.7120152711868286,
        -1.3408031463623047
      ],
      "type": "VEC3"
    },
    {
      "bufferView": 2,
      "byteOffset": 252816,
      "componentType": 5126,
      "count": 608,
      "max": [
        1.0,
        0.9659269452095032,
        0.9659265279769897
      ],
      "min": [
        -1.0,
        -0.965927243232727,
        -0.9999991655349731
      ],
      "type": "VEC3"
    },
    {
      "bufferView": 1,
      "byteOffset": 81840,
      "componentType": 5126,
      "count": 608,
      "max": [
        1.0,
        1.0
      ],
      "min": [
        7.450580596923828e-08,
        0.01000000536441803
      ],
      "type": "VEC2"
    },
    {
      "bufferView": 0,
      "byteOffset": 66984,
      "componentType": 5125,
      "count": 954,
      "type": "SCALAR"
    },
    {
      "bufferView": 2,
      "byteOffset": 260112,
      "componentType": 5126,
      "count": 35,
      "max": [
        -2.67202091217041,
        -0.22895759344100952,
        -0.8153599500656128
      ],
      "min": [
        -2.6720211505889893,
        -0.6615829467773438,
        -1.2479854822158813
      ],
      "type": "VEC3"
    },
    {
      "bufferView": 2,
      "byteOffset": 260532,
      "componentType": 5126,
      "count": 35,
      "max": [
        -1.0,
        1.1021961654478218e-06,
        5.0953517529706005e-06
      ],
      "min": [
        -1.0,
        -1.1021925274690147e-06,
        -5.0953676691278815e-06
      ],
      "type": "VEC3"
    },
    {
      "bufferView": 1,
      "byteOffset": 86704,
      "componentType": 5126,
      "count": 35,
      "max": [
        0.49000000953674316,
        0.49000000953674316
      ],
      "min": [
        0.01000000536441803,
        0.01000000536441803
      ],
      "type": "VEC2"
    },
    {
      "bufferView": 0,
      "byteOffset": 70800,
      "componentType": 5125,
      "count": 36,
      "type": "SCALAR"
    }
  ],
  "asset": {
    "extras": {
      "author": "Helyx Silveira (https://sketchfab.com/helyxsilveira)",
      "license": "CC-BY-4.0 (http://creativecommons.org/licenses/by/4.0/)",
      "source": "https://sketchfab.com/3d-models/build-apartment-low-poly-75f48b2a32a9408aa4091138a51850dd",
      "title": "Build Apartment Low Poly"
    },
    "generator": "Sketchfab-14.32.0",
    "version": "2.0"
  },
  "bufferViews": [
    {
      "buffer": 0,
      "byteLength": 70944,
      "name": "floatBufferViews",
      "target": 34963
    },
    {
      "buffer": 0,
      "byteLength": 86984,
      "byteOffset": 70944,
      "byteStride": 8,
      "name": "floatBufferViews",
      "target": 34962
    },
    {
      "buffer": 0,
      "byteLength": 260952,
      "byteOffset": 157928,
      "byteStride": 12,
      "name": "floatBufferViews",
      "target": 34962
    }
  ],
  "buffers": [
    {
      "byteLength": 418880,
      "uri": "ene.bin"
    }
  ],
  "materials": [
    {
      "doubleSided": true,
      "name": "Apartamento",
      "pbrMetallicRoughness": {
        "baseColorFactor": [
          0.889988,
          0.071804,
          0.0483772,
          1.0
        ],
        "metallicFactor": 0.0,
        "roughnessFactor": 0.595455
      }
    },
    {
      "doubleSided": true,
      "name": "Madeira",
      "pbrMetallicRoughness": {
        "baseColorFactor": [
          0.630884,
          0.230496,
          0.0207846,
          1.0
        ],
        "metallicFactor": 0.0,
        "roughnessFactor": 0.5
      }
    },
    {
      "doubleSided": true,
      "name": "Madeira_escura",
      "pbrMetallicRoughness": {
        "baseColorFactor": [
          0.218,
          0.0366631,
          0.0433643,
          1.0
        ],
        "metallicFactor": 0.0,
        "roughnessFactor": 0.5
      }
    },
    {
      "doubleSided": true,
      "name": "Vidros",
      "pbrMetallicRoughness": {
        "roughnessFactor": 0.0
      }
    },
    {
      "doubleSided": true,
      "name": "Metal",
      "pbrMetallicRoughness": {
        "baseColorFactor": [
          0.247274,
          0.247274,
          0.247274,
          1.0
        ],
        "metallicFactor": 0.604545,
        "roughnessFactor": 0.0227273
      }
    },
    {
      "doubleSided": true,
      "name": "Ap_branco",
      "pbrMetallicRoughness": {
        "baseColorFactor": [
          0.8,
          0.8,
          0.8,
          1.0
        ],
        "metallicFactor": 0.0,
        "roughnessFactor": 0.5
      }
    },
    {
      "doubleSided": true,
      "name": "Asfalto",
      "pbrMetallicRoughness": {
        "baseColorFactor": [
          0.146487,
          0.146487,
          0.146487,
          1.0
        ],
        "metallicFactor": 0.0,
        "roughnessFactor": 0.5
      }
    },
    {
      "doubleSided": true,
      "name": "Vermelho",
      "pbrMetallicRoughness": {
        "baseColorFactor": [
          0.7999999999999999,
          0.0,
          0.02690179999999996,
          1.0
        ],
        "metallicFactor": 0.0,
        "roughnessFactor": 0.5
      }
    },
    {
      "doubleSided": true,
      "name": "Black",
      "pbrMetallicRoughness": {
        "baseColorFactor": [
          0.00487643,
          0.00487643,
          0.00487643,
          1.0
        ],
        "metallicFactor": 0.0,
        "roughnessFactor": 0.5
      }
    }
  ],
  "meshes": [
    {
      "name": "Object_0",
      "primitives": [
        {
          "attributes": {
            "NORMAL": 1,
            "POSITION": 0,
            "TEXCOORD_0": 2
          },
          "indices": 3,
          "material": 0,
          "mode": 4
        }
      ]
    },
    {
      "name": "Object_1",
      "primitives": [
        {
          "attributes": {
            "NORMAL": 5,
            "POSITION": 4,
            "TEXCOORD_0": 6
          },
          "indices": 7,
          "material": 1,
          "mode": 4
        }
      ]
    },
    {
      "name": "Object_2",
      "primitives": [
        {
          "attributes": {
            "NORMAL": 9,
            "POSITION": 8,
            "TEXCOORD_0": 10
          },
          "indices": 11,
          "material": 2,
          "mode": 4
        }
      ]
    },
    {
      "name": "Object_3",
      "primitives": [
        {
          "attributes": {
            "NORMAL": 13,
            "POSITION": 12,
            "TEXCOORD_0": 14
          },
          "indices": 15,
          "material": 3,
          "mode": 4
        }
      ]
    },
    {
      "name": "Object_4",
      "primitives": [
        {
          "attributes": {
            "NORMAL": 17,
            "POSITION": 16,
            "TEXCOORD_0": 18
          },
          "indices": 19,
          "material": 4,
          "mode": 4
        }
      ]
    },
    {
      "name": "Object_5",
      "primitives": [
        {
          "attributes": {
            "NORMAL": 21,
            "POSITION": 20,
            "TEXCOORD_0": 22
          },
          "indices": 23,
          "material": 5,
          "mode": 4
        }
      ]
    },
    {
      "name": "Object_6",
      "primitives": [
        {
          "attributes": {
            "NORMAL": 25,
            "POSITION": 24,
            "TEXCOORD_0": 26
          },
          "indices": 27,
          "material": 6,
          "mode": 4
        }
      ]
    },
    {
      "name": "Object_7",
      "primitives": [
        {
          "attributes": {
            "NORMAL": 29,
            "POSITION": 28,
            "TEXCOORD_0": 30
          },
          "indices": 31,
          "material": 5,
          "mode": 4
        }
      ]
    },
    {
      "name": "Object_8",
      "primitives": [
        {
          "attributes": {
            "NORMAL": 33,
            "POSITION": 32,
            "TEXCOORD_0": 34
          },
          "indices": 35,
          "material": 4,
          "mode": 4
        }
      ]
    },
    {
      "name": "Object_9",
      "primitives": [
        {
          "attributes": {
            "NORMAL": 37,
            "POSITION": 36,
            "TEXCOORD_0": 38
          },
          "indices": 39,
          "material": 5,
          "mode": 4
        }
      ]
    },
    {
      "name": "Object_10",
      "primitives": [
        {
          "attributes": {
            "NORMAL": 41,
            "POSITION": 40,
            "TEXCOORD_0": 42
          },
          "indices": 43,
          "material": 4,
          "mode": 4
        }
      ]
    },
    {
      "name": "Object_11",
      "primitives": [
        {
          "attributes": {
            "NORMAL": 45,
            "POSITION": 44,
            "TEXCOORD_0": 46
          },
          "indices": 47,
          "material": 7,
          "mode": 4
        }
      ]
    },
    {
      "name": "Object_12",
      "primitives": [
        {
          "attributes": {
            "NORMAL": 49,
            "POSITION": 48,
            "TEXCOORD_0": 50
          },
          "indices": 51,
          "material": 4,
          "mode": 4
        }
      ]
    },
    {
      "name": "Object_13",
      "primitives": [
        {
          "attributes": {
            "NORMAL": 53,
            "POSITION": 52,
            "TEXCOORD_0": 54
          },
          "indices": 55,
          "material": 8,
          "mode": 4
        }
      ]
    }
  ],
  "nodes": [
    {
      "children": [
        1
      ],
      "matrix": [
        1.0,
        0.0,
        0.0,
        0.0,
        0.0,
        2.220446049250313e-16,
        -1.0,
        0.0,
        0.0,
        1.0,
        2.220446049250313e-16,
        0.0,
        0.0,
        0.0,
        0.0,
        1.0
      ],
      "name": "Sketchfab_model"
    },
    {
      "children": [
        2
      ],
      "name": "root"
    },
    {
      "children": [
        3,
        10,
        13,
        15,
        18
      ],
      "matrix": [
        1.0,
        0.0,
        0.0,
        0.0,
        0.0,
        2.220446049250313e-16,
        1.0,
        0.0,
        0.0,
        -1.0,
        2.220446049250313e-16,
        0.0,
        0.0,
        0.0,
        0.0,
        1.0
      ],
      "name": "GLTF_SceneRootNode"
    },
    {
      "children": [
        4,
        5,
        6,
        7,
        8,
        9
      ],
      "matrix": [
        1.0,
        0.0,
        0.0,
        0.0,
        0.0,
        1.0,
        0.0,
        0.0,
        0.0,
        0.0,
        1.0,
        0.0,
        0.0,
        1.0076690912246704,
        0.0,
        1.0
      ],
      "name": "AP_0"
    },
    {
      "mesh": 0,
      "name": "Object_4"
    },
    {
      "mesh": 1,
      "name": "Object_5"
    },
    {
      "mesh": 2,
      "name": "Object_6"
    },
    {
      "mesh": 3,
      "name": "Object_7"
    },
    {
      "mesh": 4,
      "name": "Object_8"
    },
    {
      "mesh": 5,
      "name": "Object_9"
    },
    {
      "children": [
        11,
        12
      ],
      "name": "Piso_1"
    },
    {
      "mesh": 6,
      "name": "Object_11"
    },
    {
      "mesh": 7,
      "name": "Object_12"
    },
    {
      "children": [
        14
      ],
      "matrix": [
        1.0,
        0.0,
        0.0,
        0.0,
        0.0,
        1.0,
        0.0,
        0.0,
        0.0,
        0.0,
        1.0,
        0.0,
        0.0,
        1.0076690912246704,
        0.0,
        1.0
      ],
      "name": "Escada Incendio_2"
    },
    {
      "mesh": 8,
      "name": "Object_14"
    },
    {
      "children": [
        16,
        17
      ],
      "matrix": [
        0.21328520774841309,
        0.0,
        0.0,
        0.0,
        0.0,
        0.21328520774841309,
        0.0,
        0.0,
        0.0,
        0.0,
        0.21328520774841309,
        0.0,
        -1.7815557718276978,
        2.075575828552246,
        0.0,
        1.0
      ],
      "name": "Ar Cond_3"
    },
    {
      "mesh": 9,
      "name": "Object_16"
    },
    {
      "mesh": 10,
      "name": "Object_17"
    },
    {
      "children": [
        19,
        20,
        21
      ],
      "name": "Assets_4"
    },
    {
      "mesh": 11,
      "name": "Object_19"
    },
    {
      "mesh": 12,
      "name": "Object_20"
    },
    {
      "mesh": 13,
      "name": "Object_21"
    }
  ],
  "scene": 0,
  "scenes": [
    {
      "name": "Sketchfab_Scene",
      "nodes": [
        0
      ]
    }
  ]
}
